<?xml version="1.0" encoding="UTF-8"?>
<svg width="400px" height="400px" viewBox="0 0 400 400" version="1.1" xmlns="http://www.w3.org/2000/svg" xmlns:xlink="http://www.w3.org/1999/xlink">
    <!-- Generator: Sketch 61 (89581) - https://sketch.com -->
    <title>编组 32</title>
    <desc>Created with Sketch.</desc>
    <defs>
        <rect id="path-1" x="0" y="0" width="400" height="400"></rect>
        <path d="M27.9662727,0.511636364 C13.6805455,0.620454545 -0.131727273,11.6492727 0.000947178327,28.7012727 L0.000947178327,28.7012727 L0.84,135.801273 L0.866727273,132.385909 L96.5560909,67.8834545 L49.4569091,10.7290909 C43.6876364,3.73036364 35.9901818,0.568909091 28.3881818,0.511636364 L28.3881818,0.511636364 L27.9662727,0.511636364 Z M96.5560909,203.719091 L189.011455,266.043273 C194.215636,269.550273 199.582091,271.081364 204.692727,271.090909 L204.692727,271.090909 L204.774818,271.090909 C219.879545,271.069909 232.765909,257.759727 232.809818,242.863091 L232.809818,242.863091 L232.809818,242.700818 C232.790727,236.849455 230.788091,230.761364 226.156636,225.142909 L226.156636,225.142909 L152.528727,135.801273 L96.5560909,203.719091 Z" id="path-3"></path>
        <linearGradient x1="83.3837139%" y1="62.5289834%" x2="-1.37051463%" y2="30.6708055%" id="linearGradient-5">
            <stop stop-color="#3D8EFD" offset="0%"></stop>
            <stop stop-color="#210066" offset="100%"></stop>
        </linearGradient>
        <polygon id="path-6" points="0.867681818 0.511636364 232.809818 0.511636364 232.809818 132.385145 0.867681818 132.385145"></polygon>
        <path d="M0.866727273,86.5677273 L0.84,89.9830909 L0.000927145076,197.083091 C-0.133636364,214.201909 13.7855455,225.249818 28.1304545,225.272727 L28.1304545,225.272727 L28.2182727,225.272727 C35.8756364,225.261273 43.6437273,222.107455 49.4569091,215.055273 L49.4569091,215.055273 L96.5560909,157.900909 L152.528727,89.9830909 L226.156636,0.641454545 L0.866727273,86.5677273 Z" id="path-8"></path>
        <linearGradient x1="88.9580715%" y1="34.2150111%" x2="-2.93715575%" y2="73.3880077%" id="linearGradient-10">
            <stop stop-color="#0BC8FF" offset="0%"></stop>
            <stop stop-color="#7236FF" offset="100%"></stop>
        </linearGradient>
    </defs>
    <g id="页面-1" stroke="none" stroke-width="1" fill="none" fill-rule="evenodd">
        <g id="logo新">
            <g id="编组-33">
                <g id="编组-32">
                    <g id="矩形备份-63">
                        <mask id="mask-2" fill="white">
                            <use xlink:href="#path-1"></use>
                        </mask>
                        <use id="蒙版" fill="#FFFFFF" xlink:href="#path-1"></use>
                    </g>
                    <g id="编组备份" transform="translate(85.666667, 64.333333)">
                        <g id="编组" transform="translate(0.000000, 0.397455)">
                            <mask id="mask-4" fill="white">
                                <use xlink:href="#path-3"></use>
                            </mask>
                            <g id="Clip-2"></g>
                            <path d="M27.9662727,0.511636364 C13.6805455,0.620454545 -0.131727273,11.6492727 0.000947178327,28.7012727 L0.000947178327,28.7012727 L0.84,135.801273 L0.866727273,132.385909 L96.5560909,67.8834545 L49.4569091,10.7290909 C43.6876364,3.73036364 35.9901818,0.568909091 28.3881818,0.511636364 L28.3881818,0.511636364 L27.9662727,0.511636364 Z M96.5560909,203.719091 L189.011455,266.043273 C194.215636,269.550273 199.582091,271.081364 204.692727,271.090909 L204.692727,271.090909 L204.774818,271.090909 C219.879545,271.069909 232.765909,257.759727 232.809818,242.863091 L232.809818,242.863091 L232.809818,242.700818 C232.790727,236.849455 230.788091,230.761364 226.156636,225.142909 L226.156636,225.142909 L152.528727,135.801273 L96.5560909,203.719091 Z" id="Fill-1" fill="url(#linearGradient-5)" mask="url(#mask-4)"></path>
                        </g>
                        <g id="编组" transform="translate(0.000000, 0.397455)">
                            <mask id="mask-7" fill="white">
                                <use xlink:href="#path-6"></use>
                            </mask>
                            <g id="Clip-4"></g>
                            <path d="M189.012409,5.55850909 L96.5570455,67.8826909 L0.867681818,132.385145 L226.157591,46.4588727 C246.640227,21.6044182 215.716773,-12.4423091 189.012409,5.55850909" id="Fill-3" fill="#0CC8FF" mask="url(#mask-7)"></path>
                        </g>
                        <g id="编组" transform="translate(0.000000, 46.215636)">
                            <mask id="mask-9" fill="white">
                                <use xlink:href="#path-8"></use>
                            </mask>
                            <g id="Clip-6"></g>
                            <path d="M0.866727273,86.5677273 L0.84,89.9830909 L0.000927145076,197.083091 C-0.133636364,214.201909 13.7855455,225.249818 28.1304545,225.272727 L28.1304545,225.272727 L28.2182727,225.272727 C35.8756364,225.261273 43.6437273,222.107455 49.4569091,215.055273 L49.4569091,215.055273 L96.5560909,157.900909 L152.528727,89.9830909 L226.156636,0.641454545 L0.866727273,86.5677273 Z" id="Fill-5" fill="url(#linearGradient-10)" mask="url(#mask-9)"></path>
                        </g>
                    </g>
                </g>
            </g>
        </g>
    </g>
</svg>