<?xml version="1.0" encoding="UTF-8"?>
<svg width="845px" height="298px" viewBox="0 0 845 298" version="1.1" xmlns="http://www.w3.org/2000/svg" xmlns:xlink="http://www.w3.org/1999/xlink">
    <title>编组</title>
    <g id="页面-1" stroke="none" stroke-width="1" fill="none" fill-rule="evenodd">
        <g id="桌面端-HD备份" transform="translate(-422.000000, -243.000000)" fill-rule="nonzero">
            <g id="编组" transform="translate(422.926758, 243.000000)">
                <g id="WELCOME-2" transform="translate(0.000000, 107.795898)" fill="#1960FF" opacity="0.0485520136">
                    <path d="M56.3964844,109.204102 L75.1464844,41.6015625 L93.9697266,109.204102 L126.489258,109.204102 L150.146484,1.83105469 L118.798828,1.83105469 L107.446289,61.8164062 L90.8203125,1.83105469 L59.3994141,1.83105469 L42.8466797,61.8164062 L31.4941406,1.83105469 L0,1.83105469 L23.8769531,109.204102 L56.3964844,109.204102 Z M251.513672,109.204102 L251.513672,84.8876953 L194.238281,84.8876953 L194.238281,63.7207031 L245.874023,63.7207031 L245.874023,41.8212891 L194.238281,41.8212891 L194.238281,24.7558594 L249.902344,24.7558594 L249.902344,1.83105469 L160.986328,1.83105469 L160.986328,109.204102 L251.513672,109.204102 Z M354.345703,109.204102 L354.345703,82.7636719 L302.563477,82.7636719 L302.563477,1.83105469 L269.384766,1.83105469 L269.384766,109.204102 L354.345703,109.204102 Z M421.362305,111.108398 C430.981445,111.108398 438.903809,109.716797 445.129395,106.933594 C451.35498,104.150391 456.567383,100.024414 460.766602,94.5556641 C464.96582,89.0869141 468.041992,82.2753906 469.995117,74.1210938 L469.995117,74.1210938 L440.917969,65.3320312 C439.453125,72.1191406 437.097168,77.2949219 433.850098,80.859375 C430.603027,84.4238281 425.805664,86.2060547 419.458008,86.2060547 C412.915039,86.2060547 407.836914,83.996582 404.223633,79.5776367 C400.610352,75.1586914 398.803711,66.9921875 398.803711,55.078125 C398.803711,45.4589844 400.317383,38.4033203 403.344727,33.9111328 C407.348633,27.8564453 413.110352,24.8291016 420.629883,24.8291016 C423.950195,24.8291016 426.953125,25.5126953 429.638672,26.8798828 C432.324219,28.2470703 434.594727,30.2001953 436.450195,32.7392578 C437.573242,34.2529297 438.647461,36.6455078 439.672852,39.9169922 L439.672852,39.9169922 L468.969727,33.3984375 C465.209961,22.0703125 459.460449,13.671875 451.721191,8.203125 C443.981934,2.734375 433.349609,0 419.824219,0 C402.539062,0 389.172363,4.77294922 379.724121,14.3188477 C370.275879,23.8647461 365.551758,37.5244141 365.551758,55.2978516 C365.551758,68.6279297 368.237305,79.5654297 373.608398,88.1103516 C378.979492,96.6552734 385.36377,102.624512 392.76123,106.018066 C400.158691,109.411621 409.692383,111.108398 421.362305,111.108398 Z M538.696289,111.035156 C550.610352,111.035156 560.559082,108.80127 568.54248,104.333496 C576.525879,99.8657227 582.629395,93.6157227 586.853027,85.5834961 C591.07666,77.5512695 593.188477,67.2607422 593.188477,54.7119141 C593.188477,37.4267578 588.354492,23.9868164 578.686523,14.3920898 C569.018555,4.79736328 555.249023,0 537.37793,0 C519.946289,0 506.347656,4.8828125 496.582031,14.6484375 C486.816406,24.4140625 481.933594,38.0615234 481.933594,55.5908203 C481.933594,68.1396484 484.399414,78.5888672 489.331055,86.9384766 C494.262695,95.2880859 500.695801,101.391602 508.630371,105.249023 C516.564941,109.106445 526.586914,111.035156 538.696289,111.035156 Z M537.597656,86.2060547 C530.664062,86.2060547 525.183105,83.8378906 521.154785,79.1015625 C517.126465,74.3652344 515.112305,66.5771484 515.112305,55.7373047 C515.112305,44.7998047 517.138672,36.9628906 521.191406,32.2265625 C525.244141,27.4902344 530.615234,25.1220703 537.304688,25.1220703 C544.287109,25.1220703 549.816895,27.4536133 553.894043,32.1166992 C557.971191,36.7797852 560.009766,44.1650391 560.009766,54.2724609 C560.009766,66.2841797 558.056641,74.609375 554.150391,79.2480469 C550.244141,83.8867188 544.726562,86.2060547 537.597656,86.2060547 Z M637.866211,109.204102 L637.866211,27.3193359 L658.813477,109.204102 L683.349609,109.204102 L704.370117,27.3193359 L704.370117,109.204102 L731.469727,109.204102 L731.469727,1.83105469 L687.963867,1.83105469 L671.191406,67.1630859 L654.345703,1.83105469 L610.693359,1.83105469 L610.693359,109.204102 L637.866211,109.204102 Z M843.09082,109.204102 L843.09082,84.8876953 L785.81543,84.8876953 L785.81543,63.7207031 L837.451172,63.7207031 L837.451172,41.8212891 L785.81543,41.8212891 L785.81543,24.7558594 L841.479492,24.7558594 L841.479492,1.83105469 L752.563477,1.83105469 L752.563477,109.204102 L843.09082,109.204102 Z" id="WELCOME"></path>
                </g>
                <g id="undraw_content_team_3epn" transform="translate(188.073242, 0.000000)">
                    <path d="M452.845693,297.394527 L52.9013047,297.394527 C45.4949737,297.394527 39.4909561,291.39051 39.4909561,283.984179 L39.4909561,283.984179 C184.470722,267.134755 326.725752,267.134755 466.256047,283.984179 L466.256047,283.984179 C466.256047,291.39051 460.252025,297.394527 452.845693,297.394527 Z" id="路径" fill="#CCCCCC"></path>
                    <path d="M466.256047,284.773007 L39.4909561,283.984162 L88.9515374,200.761028 L89.1881811,200.366606 L89.1881811,16.9522707 C89.1878054,12.4561338 90.9737224,8.14403912 94.1529713,4.96479022 C97.3322202,1.78554132 101.644315,-5.92660022e-08 106.140452,-5.92660022e-08 L397.240012,-5.92660022e-08 C401.736149,-5.92660022e-08 406.048243,1.78554132 409.227492,4.96479022 C412.406741,8.14403912 414.192658,12.4561338 414.192283,16.9522707 L414.192283,201.628716 L466.256047,284.773007 Z" id="路径" fill="#E6E6E6"></path>
                    <path d="M105.753925,11.8326755 C102.705674,11.8360945 100.235431,14.3063373 100.232012,17.3545882 L100.232012,184.589707 C100.235567,187.637901 102.70573,190.108064 105.753925,190.11162 L399.993073,190.11162 C403.041212,190.107931 405.511297,187.637846 405.514986,184.589707 L405.514986,17.3545882 C405.511433,14.3063926 403.041269,11.8362278 399.993073,11.8326755 L105.753925,11.8326755 Z" id="路径" fill="#FFFFFF"></path>
                    <path d="M107.687686,212.199276 C106.76401,212.200845 105.925171,212.738231 105.537622,213.576673 L90.2972792,246.70816 C89.9601129,247.440836 90.0193226,248.294785 90.4543783,248.973917 C90.889434,249.65305 91.6404234,250.063858 92.4469558,250.063858 L412.943318,250.063858 C413.76351,250.063858 414.525202,249.639108 414.956314,248.941357 C415.387425,248.243605 415.426465,247.372367 415.059486,246.638855 L398.493726,213.507368 C398.095075,212.70386 397.27452,212.196651 396.377558,212.199276 L107.687686,212.199276 Z" id="路径" fill="#CCCCCC"></path>
                    <circle id="椭圆形" fill="#FFFFFF" cx="251.690232" cy="5.5219127" r="3.54980102"></circle>
                    <path d="M220.188049,256.374594 C219.118604,256.375941 218.182535,257.093301 217.903175,258.125615 L214.080281,272.324819 C213.888693,273.035731 214.038936,273.795315 214.48674,274.379758 C214.934545,274.9642 215.628879,275.306871 216.365155,275.306871 L289.067923,275.306871 C289.833408,275.306871 290.551596,274.936537 290.995498,274.312902 C291.439399,273.689268 291.554155,272.889408 291.303498,272.166125 L286.388621,257.966921 C286.058343,257.014053 285.16076,256.374955 284.152276,256.374594 L220.188049,256.374594 Z" id="路径" fill="#CCCCCC"></path>
                    <polygon id="路径" fill="#CCCCCC" points="414.19246 197.605385 414.19246 200.761281 88.951559 200.761281 89.1960601 200.366525 89.1960601 197.605385"></polygon>
                    <path d="M374.047593,204.833771 C373.787168,204.834098 373.559221,205.008784 373.491191,205.260167 L372.560256,208.717892 C372.513608,208.89101 372.550198,209.075977 372.659245,209.218296 C372.768292,209.360615 372.93737,209.444066 373.116663,209.444066 L390.820882,209.444066 C391.007289,209.444066 391.182178,209.353882 391.290274,209.202018 C391.39837,209.050153 391.426314,208.855376 391.365274,208.679246 L390.168431,205.221526 C390.088001,204.989488 389.869426,204.833859 389.623845,204.833771 L374.047593,204.833771 Z" id="路径" fill="#CCCCCC"></path>
                    <path d="M348.197253,204.833771 C347.936828,204.834098 347.708881,205.008784 347.640851,205.260167 L346.709916,208.717892 C346.663268,208.89101 346.699858,209.075977 346.808905,209.218296 C346.917952,209.360615 347.08703,209.444066 347.266323,209.444066 L364.970542,209.444066 C365.156949,209.444066 365.331838,209.353882 365.439934,209.202018 C365.54803,209.050153 365.575974,208.855376 365.514934,208.679246 L364.31809,205.221526 C364.237661,204.989488 364.019086,204.833859 363.773505,204.833771 L348.197253,204.833771 Z" id="路径" fill="#CCCCCC"></path>
                    <path d="M273.303459,226.804201 L274.691014,226.804201 L271.915872,41.3343438 L270.528312,41.3343438 L270.583669,45.0344969 L239.484277,45.0344969 L239.53963,41.3343438 L238.152075,41.3343438 L235.376933,226.804201 L236.764493,226.804201 L236.944428,214.77873 L273.123503,214.77873 L273.303459,226.804201 Z M271.303423,93.1364005 L238.76455,93.1364005 L239.103637,70.4730088 L270.964332,70.4730088 L271.303423,93.1364005 Z M271.324201,94.5239606 L271.663287,117.187347 L238.40467,117.187347 L238.743762,94.5239606 L271.324201,94.5239606 Z M271.684064,118.574907 L272.023156,141.238299 L238.044817,141.238299 L238.383909,118.574907 L271.684064,118.574907 Z M272.043928,142.625853 L272.38302,165.289245 L237.684954,165.289245 L238.024046,142.625853 L272.043928,142.625853 Z M272.403792,166.676805 L272.742884,189.340224 L237.325063,189.340224 L237.664155,166.676805 L272.403792,166.676805 Z M270.604468,46.422057 L270.94356,69.0854487 L239.124414,69.0854487 L239.463506,46.422057 L270.604468,46.422057 Z M236.965221,213.39117 L237.304313,190.727779 L272.763661,190.727779 L273.102753,213.39117 L236.965221,213.39117 Z" id="形状" fill="#3F3D56"></path>
                    <circle id="椭圆形" fill="#2F2E41" cx="248.160249" cy="82.5905496" r="22.6256879"></circle>
                    <polygon id="矩形" fill="#2F2E41" transform="translate(259.183877, 104.898171) rotate(-10.261060) translate(-259.183877, -104.898171) " points="255.747064 98.7405415 262.620691 98.7405415 262.620691 111.0558 255.747064 111.0558"></polygon>
                    <polygon id="矩形" fill="#2F2E41" transform="translate(245.656525, 107.346980) rotate(-10.261060) translate(-245.656525, -107.346980) " points="242.219712 101.189351 249.093339 101.189351 249.093339 113.504609 242.219712 113.504609"></polygon>
                    <ellipse id="椭圆形" fill="#2F2E41" transform="translate(245.573893, 114.929440) rotate(-40.261060) translate(-245.573893, -114.929440) " cx="245.573893" cy="114.92944" rx="5.72801531" ry="2.14801786"></ellipse>
                    <ellipse id="椭圆形" fill="#2F2E41" transform="translate(258.819461, 112.531593) rotate(-40.261060) translate(-258.819461, -112.531593) " cx="258.819461" cy="112.531593" rx="5.72803146" ry="2.14801786"></ellipse>
                    <circle id="椭圆形" fill="#FFFFFF" cx="246.576259" cy="77.0561749" r="7.73282766"></circle>
                    <circle id="椭圆形" fill="#3F3D56" cx="243.398084" cy="74.2843776" r="2.57761281"></circle>
                    <path d="M266.008751,57.9762219 C266.34899,49.5998554 259.129798,42.5050088 249.884171,42.1294626 C240.638544,41.7539164 232.867689,48.2398367 232.527429,56.6162086 C232.187168,64.9925805 238.614058,66.8957364 247.859669,67.2713149 C257.10528,67.6468934 265.668507,66.352583 266.008751,57.9762219 Z" id="路径" fill="#3666D2"></path>
                    <ellipse id="椭圆形" fill="#2F2E41" transform="translate(227.268535, 78.468524) rotate(-77.089900) translate(-227.268535, -78.468524) " cx="227.268535" cy="78.4685238" rx="3.55144898" ry="11.3128413"></ellipse>
                    <ellipse id="椭圆形" fill="#2F2E41" transform="translate(271.681917, 85.854429) rotate(-77.089900) translate(-271.681917, -85.854429) " cx="271.681917" cy="85.8544292" rx="3.55144898" ry="11.3128413"></ellipse>
                    <path d="M254.374402,91.507059 C254.705986,93.3198053 254.044728,95.1716861 252.639962,96.3644265 C251.235195,97.5571669 249.300591,97.9093477 247.565615,97.2881745 C245.830639,96.6670014 244.559187,95.1669567 244.230675,93.3536511 L244.22887,93.3436933 C243.721692,90.5420819 245.887805,89.5506944 248.689433,89.0435215 C251.49106,88.5363486 253.867245,88.7054476 254.374402,91.507059 Z" id="路径" fill="#FFFFFF"></path>
                    <ellipse id="椭圆形" fill="#2F2E41" transform="translate(168.127341, 158.136048) rotate(-69.082170) translate(-168.127341, -158.136048) " cx="168.127341" cy="158.136048" rx="11.5969419" ry="3.64062727"></ellipse>
                    <circle id="椭圆形" fill="#2F2E41" transform="translate(146.689251, 175.650757) rotate(-80.782520) translate(-146.689251, -175.650757) " cx="146.689251" cy="175.650757" r="23.1938676"></circle>
                    <rect id="矩形" fill="#2F2E41" x="136.119894" y="193.853516" width="7.04623186" height="12.6245037"></rect>
                    <rect id="矩形" fill="#2F2E41" x="150.212357" y="193.853516" width="7.04623186" height="12.6245037"></rect>
                    <ellipse id="椭圆形" fill="#2F2E41" cx="141.991766" cy="206.624822" rx="5.87187245" ry="2.20195351"></ellipse>
                    <ellipse id="椭圆形" fill="#2F2E41" cx="156.08423" cy="206.331238" rx="5.87187245" ry="2.20195351"></ellipse>
                    <path d="M124.190436,154.081135 C122.317643,145.69389 128.304232,137.218926 137.561853,135.151772 C146.819473,133.084617 155.84247,138.208079 157.715257,146.595329 C159.588044,154.98258 153.452692,158.075923 144.195071,160.143062 C134.937451,162.2102 126.063228,162.468375 124.190436,154.081135 Z" id="路径" fill="#3666D2"></path>
                    <ellipse id="椭圆形" fill="#2F2E41" transform="translate(120.565234, 164.888707) rotate(-64.625740) translate(-120.565234, -164.888707) " cx="120.565234" cy="164.888707" rx="3.64062727" ry="11.5969365"></ellipse>
                    <circle id="椭圆形" fill="#2F2E41" cx="46.2617687" cy="199.135499" r="23.1938569"></circle>
                    <rect id="矩形" fill="#2F2E41" x="35.6924209" y="217.33828" width="7.04623186" height="12.6245037"></rect>
                    <rect id="矩形" fill="#2F2E41" x="49.7848846" y="217.33828" width="7.04623186" height="12.6245037"></rect>
                    <ellipse id="椭圆形" fill="#2F2E41" cx="41.5642611" cy="230.109582" rx="5.87187245" ry="2.20195351"></ellipse>
                    <ellipse id="椭圆形" fill="#2F2E41" cx="55.6567571" cy="229.815986" rx="5.87187245" ry="2.20195351"></ellipse>
                    <circle id="椭圆形" fill="#FFFFFF" cx="46.8489646" cy="193.263649" r="7.92701757"></circle>
                    <circle id="椭圆形" fill="#3F3D56" cx="46.8489646" cy="193.263649" r="2.64234637"></circle>
                    <path d="M23.7629306,177.565895 C21.890138,169.17865 27.8767268,160.703702 37.1343475,158.636547 C46.3919683,156.569392 55.4149595,161.69287 57.287752,170.080116 C59.1605445,178.467361 53.0251817,181.560731 43.7675609,183.627848 C34.5099402,185.694965 25.63575,185.953172 23.7629306,177.565895 Z" id="路径" fill="#E6E6E6"></path>
                    <ellipse id="椭圆形" fill="#2F2E41" transform="translate(59.772839, 114.975180) rotate(-69.082170) translate(-59.772839, -114.975180) " cx="59.7728392" cy="114.97518" rx="11.5969419" ry="3.64062727"></ellipse>
                    <circle id="椭圆形" fill="#2F2E41" transform="translate(38.334745, 132.489880) rotate(-80.782520) translate(-38.334745, -132.489880) " cx="38.3347447" cy="132.48988" r="23.1938676"></circle>
                    <rect id="矩形" fill="#2F2E41" x="27.7653926" y="150.692641" width="7.04623186" height="12.6245037"></rect>
                    <rect id="矩形" fill="#2F2E41" x="41.8578563" y="150.692641" width="7.04623186" height="12.6245037"></rect>
                    <ellipse id="椭圆形" fill="#2F2E41" cx="33.637265" cy="163.463947" rx="5.87187245" ry="2.20195351"></ellipse>
                    <ellipse id="椭圆形" fill="#2F2E41" cx="47.7297287" cy="163.170363" rx="5.87187245" ry="2.20195351"></ellipse>
                    <circle id="椭圆形" fill="#FFFFFF" cx="38.9219362" cy="126.618009" r="7.92701757"></circle>
                    <circle id="椭圆形" fill="#3F3D56" cx="38.9219362" cy="126.618009" r="2.64234637"></circle>
                    <path d="M15.8359345,110.920223 C13.963142,102.532978 19.9497307,94.0580136 29.2073515,91.9908588 C38.4649722,89.9237041 47.4879688,95.0471661 49.360756,103.434417 C51.2335431,111.821667 45.098191,114.91501 35.8405703,116.982149 C26.5829495,119.049288 17.708727,119.3075 15.8359345,110.920223 Z" id="路径" fill="#3666D2"></path>
                    <ellipse id="椭圆形" fill="#2F2E41" transform="translate(12.210732, 121.727833) rotate(-64.625740) translate(-12.210732, -121.727833) " cx="12.2107316" cy="121.727833" rx="3.64062727" ry="11.5969365"></ellipse>
                    <path d="M26.9419892,140.857276 C26.9419892,143.127339 32.7870043,147.609907 39.2728977,147.609907 C45.7587911,147.609907 51.8400082,141.218949 51.8400082,138.948917 C51.8400082,136.678886 45.7587534,139.389315 39.2728977,139.389315 C32.787042,139.389315 26.9419892,138.587212 26.9419892,140.857276 Z" id="路径" fill="#FFFFFF"></path>
                    <path d="M61.1380794,43.9287163 C60.2461861,43.9296898 59.5224331,44.6524693 59.5224331,45.5443625 L59.5224331,112.324408 C59.5224331,113.216301 60.2461861,113.939081 61.1380794,113.940054 L215.701571,113.940054 C216.593465,113.939081 217.317218,113.216301 217.317218,112.324408 L217.317218,45.5443625 C217.317218,44.6524693 216.593465,43.9296898 215.701571,43.9287163 L61.1380794,43.9287163 Z" id="路径" fill="#3666D2"></path>
                    <circle id="椭圆形" fill="#FFFFFF" cx="102.872592" cy="78.9343852" r="15.6831321"></circle>
                    <path d="M138.268946,76.8477673 C137.26799,76.8642215 136.465174,77.6803432 136.465174,78.6814342 C136.465174,79.6825253 137.26799,80.498647 138.268946,80.5151012 L187.786166,80.5151012 C188.44161,80.5263828 189.053232,80.1869498 189.390427,79.6247814 C189.727622,79.062613 189.739106,78.3632102 189.420548,77.7902747 C189.101991,77.2173393 188.501842,76.8580098 187.846381,76.8477673 C187.826308,76.8474262 187.806236,76.8474262 187.786166,76.8477673 L138.268946,76.8477673 Z" id="b71acdfd-6a55-428e-917a-53f192cb0203-26" fill="#FFFFFF"></path>
                    <path d="M138.268946,66.2237083 C137.26799,66.2401625 136.465174,67.0562842 136.465174,68.0573753 C136.465174,69.0584664 137.26799,69.8745881 138.268946,69.8910422 L162.996719,69.8910422 C163.652175,69.9023427 164.263817,69.5629134 164.601023,69.0007367 C164.93823,68.4385599 164.949713,67.7391416 164.631143,67.1661984 C164.312572,66.5932552 163.712402,66.2339305 163.056928,66.2237083 C163.036858,66.2233673 163.016788,66.2233673 162.996719,66.2237083 L138.268946,66.2237083 Z" id="ad4fbcfa-41b0-45f9-a593-23b6dc3fe165-27" fill="#FFFFFF"></path>
                    <path d="M138.268946,87.9777336 C137.26799,87.9941877 136.465174,88.8103094 136.465174,89.8114005 C136.465174,90.8124916 137.26799,91.6286133 138.268946,91.6450675 L187.786166,91.6450675 C188.44161,91.6563491 189.053232,91.3169161 189.390427,90.7547476 C189.727622,90.1925792 189.739106,89.4931764 189.420548,88.920241 C189.101991,88.3473056 188.501842,87.9879761 187.846381,87.9777336 C187.826308,87.9773745 187.806236,87.9773745 187.786166,87.9777336 L138.268946,87.9777336 Z" id="bce2a7cd-a325-424d-9b3a-f63d1dad5aba-28" fill="#FFFFFF"></path>
                    <ellipse id="椭圆形" fill="#2F2E41" transform="translate(374.615940, 200.668696) rotate(-20.917830) translate(-374.615940, -200.668696) " cx="374.61594" cy="200.668696" rx="3.64062727" ry="11.5969419"></ellipse>
                    <circle id="椭圆形" fill="#2F2E41" transform="translate(391.207098, 223.030334) rotate(-9.217470) translate(-391.207098, -223.030334) " cx="391.207098" cy="223.030334" r="23.1938569"></circle>
                    <polygon id="路径" fill="#2F2E41" points="401.776219 241.23322 394.730385 241.23322 396.10907 256.351899 401.788605 254.808957"></polygon>
                    <polygon id="路径" fill="#2F2E41" points="386.415193 241.272534 379.368821 241.272534 380.747506 256.391213 386.170692 254.808957"></polygon>
                    <ellipse id="椭圆形" fill="#2F2E41" transform="translate(380.386708, 254.905424) rotate(-4.181640) translate(-380.386708, -254.905424) " cx="380.386708" cy="254.905424" rx="5.87187245" ry="2.20195351"></ellipse>
                    <circle id="椭圆形" fill="#FFFFFF" cx="390.619907" cy="217.158454" r="7.92701757"></circle>
                    <circle id="椭圆形" fill="#3F3D56" cx="390.619907" cy="217.158454" r="2.64234637"></circle>
                    <ellipse id="椭圆形" fill="#2F2E41" transform="translate(415.715479, 206.882818) rotate(-53.549900) translate(-415.715479, -206.882818) " cx="415.715479" cy="206.882818" rx="11.5969365" ry="3.64062727"></ellipse>
                    <path d="M379.890664,234.989641 C379.890664,233.118723 384.707982,229.424278 390.05351,229.424278 C395.399037,229.424278 400.41103,234.691554 400.41103,236.562462 C400.41103,238.43337 395.398999,236.19948 390.05351,236.19948 C384.70802,236.19948 379.890664,236.86057 379.890664,234.989641 Z" id="路径" fill="#FFFFFF"></path>
                    <path d="M456.245955,203.863171 L329.285494,186.262816 C327.224571,185.974569 325.785765,184.072643 326.069017,182.011028 L340.341577,79.0557041 C340.629739,76.9947308 342.531725,75.5558786 344.593365,75.839227 L471.553816,93.4395873 C473.614791,93.7277462 475.053644,95.6297345 474.770293,97.6913759 L460.497744,200.6467 C460.209499,202.707624 458.30757,204.14643 456.245955,203.863171 L456.245955,203.863171 Z" id="路径" fill="#3666D2"></path>
                    <path d="M410.763149,171.732195 L345.946399,162.74673 C345.865095,162.736532 345.784904,162.718865 345.706842,162.693952 L383.723284,113.844209 C384.19752,113.223753 384.968925,112.906468 385.742467,113.013702 C386.516008,113.120936 387.172013,113.6361 387.459584,114.362163 L403.093288,152.848107 L403.842555,154.68983 L410.763149,171.732195 Z" id="路径" fill="#FFFFFF"></path>
                    <polygon id="路径" fill="#000000" opacity="0.2" points="410.762982 171.731888 388.632937 168.664314 401.684127 154.390618 402.623895 153.362528 403.093509 152.848214 403.84263 154.690051"></polygon>
                    <path d="M446.852647,176.735232 L390.791478,168.963548 L403.842555,154.689852 L404.781924,153.661504 L421.788868,135.059965 C422.383168,134.494803 423.189487,134.208563 424.007113,134.272498 C424.824739,134.336433 425.576765,134.74453 426.075991,135.395201 C426.138142,135.485675 426.194462,135.580019 426.244611,135.677659 L446.852647,176.735232 Z" id="路径" fill="#FFFFFF"></path>
                    <circle id="椭圆形" fill="#FFFFFF" cx="411.551428" cy="120.73376" r="9.69387755"></circle>
                    <polygon id="矩形" fill="#3D8CFA" transform="translate(351.813524, 90.435033) rotate(7.892770) translate(-351.813524, -90.435033) " points="345.889469 84.5109772 357.73758 84.5109772 357.73758 96.3590881 345.889469 96.3590881"></polygon>
                    <path d="M413.705908,201.460684 C415.578701,193.073438 409.592112,184.598474 400.334491,182.53132 C391.076871,180.464165 382.05388,185.587627 380.181087,193.974872 C378.308295,202.362117 384.443657,205.455471 393.701278,207.522605 C402.958899,209.589738 411.833121,209.847945 413.705908,201.460684 Z" id="路径" fill="#F2F2F2"></path>
                    <ellipse id="椭圆形" fill="#2F2E41" transform="translate(395.839018, 254.868139) rotate(-4.181640) translate(-395.839018, -254.868139) " cx="395.839018" cy="254.868139" rx="5.87187245" ry="2.20195351"></ellipse>
                </g>
            </g>
        </g>
    </g>
</svg>