<?xml version="1.0" encoding="UTF-8"?>
<svg width="24px" height="24px" viewBox="0 0 24 24" version="1.1" xmlns="http://www.w3.org/2000/svg" xmlns:xlink="http://www.w3.org/1999/xlink">
    <title>IOT</title>
    <g id="WEB和GIS大屏" stroke="none" stroke-width="1" fill="none" fill-rule="evenodd">
        <g id="全局" transform="translate(-406.000000, -472.000000)">
            <g id="IOT" transform="translate(406.000000, 472.000000)">
                <rect id="矩形" x="0" y="0" width="24" height="24"></rect>
                <path d="M12.2615468,12.6529524 C11.079972,12.6529524 10.1220564,13.6131429 10.1220564,14.7973333 C10.1220564,15.9815238 11.079972,16.9415238 12.2615468,16.9415238 C13.4431216,16.9415238 14.4010372,15.9815238 14.4010372,14.7973333 C14.4010372,13.6131429 13.4431216,12.6529524 12.2615468,12.6529524 Z M12.2615468,11.5809524 C14.033909,11.5809524 15.4706873,13.0209524 15.4706873,14.7973333 C15.4706873,16.5737143 14.033909,18.0137143 12.2615468,18.0137143 C10.4891845,18.0137143 9.05240626,16.5737143 9.05240626,14.7973333 C9.05240626,13.0209524 10.4891845,11.5809524 12.2615468,11.5809524 Z M4.91841453,8.29430476 L5.98331407,8.29430476 L5.98331407,18.1537143 L4.91841453,17.5377143 L4.91841453,8.29430476 Z M10.2812973,0 L10.3253831,0.0255045714 L10.3694688,0 L10.4135546,0.0765148571 L20.6505761,5.99897143 L20.650006,6 L18.5222972,6 L10.3253831,1.25782857 L1.06489955,6.61525714 L1.06489955,17.3847619 L10.3253831,22.7420952 L19.5856766,17.3847619 L19.5856766,9.36647619 L16.5971549,9.36647619 L16.5971549,8.29430476 L23.6390977,8.29430476 L23.6390977,9.36647619 L20.6505761,9.36647619 L20.6505761,18 L20.650006,18 L20.6505761,18.0009524 L10.4135546,23.9234286 L10.3694688,24 L10.3253831,23.9744762 L10.2812973,24 L10.2372115,23.9234286 L0,18.0009524 L0.000570631477,18 L0,18 L0,6.00001905 L0.000570631477,6.00001905 L0,5.99897143 L10.2372115,0.0765148571 L10.2812973,0 Z" id="形状" fill="#2755BC"></path>
            </g>
        </g>
    </g>
</svg>